<mxfile host="app.diagrams.net" modified="2023-02-09T06:19:02.444Z" agent="5.0 (Macintosh; Intel Mac OS X 10_14_6) AppleWebKit/537.36 (KHTML, like Gecko) Chrome/109.0.0.0 Safari/537.36" etag="cWjS2nkh551ARtnAjnVx" version="20.8.16" type="github">
  <diagram id="mp60qOV68SFqAfoOoV6D" name="第 1 页">
    <mxGraphModel dx="1434" dy="1173" grid="1" gridSize="10" guides="1" tooltips="1" connect="1" arrows="1" fold="1" page="0" pageScale="1" pageWidth="827" pageHeight="1169" math="0" shadow="0">
      <root>
        <mxCell id="0" />
        <mxCell id="1" parent="0" />
        <mxCell id="o_QqZk30kJ9pIWFtDjuv-4" value="运维监控" style="rounded=0;whiteSpace=wrap;html=1;fontSize=20;align=left;verticalAlign=top;fontStyle=1" vertex="1" parent="1">
          <mxGeometry x="830" y="800" width="1340" height="190" as="geometry" />
        </mxCell>
        <mxCell id="4X3IUX-g1kSVnd_rLmz1-27" value="用户服务" style="rounded=0;whiteSpace=wrap;html=1;verticalAlign=top;align=left;fontSize=22;fontStyle=1" parent="1" vertex="1">
          <mxGeometry x="70" y="-40" width="670" height="1030" as="geometry" />
        </mxCell>
        <mxCell id="4X3IUX-g1kSVnd_rLmz1-28" value="服务集群" style="rounded=0;whiteSpace=wrap;html=1;fontStyle=1;align=left;verticalAlign=top;fontSize=22;" parent="1" vertex="1">
          <mxGeometry x="830" y="-40" width="1330" height="820" as="geometry" />
        </mxCell>
        <mxCell id="_vEEIP5en38CyTzr71SO-110" value="监控/告警" style="edgeStyle=none;rounded=0;orthogonalLoop=1;jettySize=auto;html=1;entryX=0.5;entryY=0;entryDx=0;entryDy=0;strokeColor=default;fontSize=15;fontColor=#000000;startArrow=none;startFill=0;" parent="1" target="_vEEIP5en38CyTzr71SO-57" edge="1">
          <mxGeometry relative="1" as="geometry">
            <mxPoint x="1500" y="780" as="sourcePoint" />
          </mxGeometry>
        </mxCell>
        <mxCell id="_vEEIP5en38CyTzr71SO-50" value="" style="rounded=0;whiteSpace=wrap;html=1;labelBackgroundColor=#FFFFFF;strokeColor=#91C3C2;strokeWidth=1;fontSize=15;fontColor=#000000;fillColor=#FFFFFF;dashed=1;dashPattern=1 1;shadow=1;" parent="1" vertex="1">
          <mxGeometry x="1150" y="30" width="710" height="570" as="geometry" />
        </mxCell>
        <mxCell id="_vEEIP5en38CyTzr71SO-14" style="edgeStyle=orthogonalEdgeStyle;rounded=0;orthogonalLoop=1;jettySize=auto;html=1;entryX=0;entryY=0.5;entryDx=0;entryDy=0;fontSize=20;fontColor=#000000;exitX=1.001;exitY=0.317;exitDx=0;exitDy=0;exitPerimeter=0;" parent="1" source="4X3IUX-g1kSVnd_rLmz1-27" target="_vEEIP5en38CyTzr71SO-8" edge="1">
          <mxGeometry relative="1" as="geometry">
            <mxPoint x="720" y="285" as="sourcePoint" />
          </mxGeometry>
        </mxCell>
        <mxCell id="_vEEIP5en38CyTzr71SO-15" value="SLB负载均衡" style="edgeLabel;html=1;align=center;verticalAlign=middle;resizable=0;points=[];fontSize=18;fontColor=#000000;horizontal=0;labelPosition=center;verticalLabelPosition=middle;" parent="_vEEIP5en38CyTzr71SO-14" vertex="1" connectable="0">
          <mxGeometry x="-0.1333" relative="1" as="geometry">
            <mxPoint as="offset" />
          </mxGeometry>
        </mxCell>
        <mxCell id="_vEEIP5en38CyTzr71SO-44" value="用户认证/鉴权" style="edgeStyle=orthogonalEdgeStyle;rounded=0;orthogonalLoop=1;jettySize=auto;html=1;exitX=0.5;exitY=0;exitDx=0;exitDy=0;fontSize=18;fontColor=#000000;entryX=0.5;entryY=1;entryDx=0;entryDy=0;" parent="1" source="_vEEIP5en38CyTzr71SO-8" target="_vEEIP5en38CyTzr71SO-30" edge="1">
          <mxGeometry relative="1" as="geometry">
            <mxPoint x="917.5" y="115" as="targetPoint" />
          </mxGeometry>
        </mxCell>
        <mxCell id="_vEEIP5en38CyTzr71SO-104" style="edgeStyle=none;rounded=0;orthogonalLoop=1;jettySize=auto;html=1;exitX=1;exitY=0.25;exitDx=0;exitDy=0;strokeColor=default;fontSize=15;fontColor=#000000;startArrow=none;startFill=0;entryX=0;entryY=0.39;entryDx=0;entryDy=0;entryPerimeter=0;" parent="1" source="_vEEIP5en38CyTzr71SO-8" target="_vEEIP5en38CyTzr71SO-50" edge="1">
          <mxGeometry relative="1" as="geometry">
            <mxPoint x="1150" y="280" as="targetPoint" />
          </mxGeometry>
        </mxCell>
        <mxCell id="_vEEIP5en38CyTzr71SO-107" value="负载" style="edgeLabel;html=1;align=center;verticalAlign=middle;resizable=0;points=[];fontSize=18;fontColor=#000000;" parent="_vEEIP5en38CyTzr71SO-104" vertex="1" connectable="0">
          <mxGeometry x="-0.0665" y="-2" relative="1" as="geometry">
            <mxPoint as="offset" />
          </mxGeometry>
        </mxCell>
        <mxCell id="_vEEIP5en38CyTzr71SO-105" style="edgeStyle=none;rounded=0;orthogonalLoop=1;jettySize=auto;html=1;exitX=1;exitY=0.5;exitDx=0;exitDy=0;strokeColor=default;fontSize=15;fontColor=#000000;startArrow=none;startFill=0;" parent="1" edge="1">
          <mxGeometry relative="1" as="geometry">
            <mxPoint x="1022.5" y="284.5" as="sourcePoint" />
            <mxPoint x="1150" y="284.5" as="targetPoint" />
          </mxGeometry>
        </mxCell>
        <mxCell id="_vEEIP5en38CyTzr71SO-108" value="熔断" style="edgeLabel;html=1;align=center;verticalAlign=middle;resizable=0;points=[];fontSize=18;fontColor=#000000;" parent="_vEEIP5en38CyTzr71SO-105" vertex="1" connectable="0">
          <mxGeometry x="-0.05" y="3" relative="1" as="geometry">
            <mxPoint as="offset" />
          </mxGeometry>
        </mxCell>
        <mxCell id="_vEEIP5en38CyTzr71SO-106" style="edgeStyle=none;rounded=0;orthogonalLoop=1;jettySize=auto;html=1;strokeColor=default;fontSize=15;fontColor=#000000;startArrow=none;startFill=0;exitX=1;exitY=0.75;exitDx=0;exitDy=0;entryX=0;entryY=0.5;entryDx=0;entryDy=0;" parent="1" source="_vEEIP5en38CyTzr71SO-8" target="_vEEIP5en38CyTzr71SO-50" edge="1">
          <mxGeometry relative="1" as="geometry">
            <mxPoint x="1150" y="350" as="targetPoint" />
            <mxPoint x="1030" y="359" as="sourcePoint" />
          </mxGeometry>
        </mxCell>
        <mxCell id="_vEEIP5en38CyTzr71SO-109" value="限流" style="edgeLabel;html=1;align=center;verticalAlign=middle;resizable=0;points=[];fontSize=18;fontColor=#000000;" parent="_vEEIP5en38CyTzr71SO-106" vertex="1" connectable="0">
          <mxGeometry x="-0.0179" y="-1" relative="1" as="geometry">
            <mxPoint as="offset" />
          </mxGeometry>
        </mxCell>
        <mxCell id="_vEEIP5en38CyTzr71SO-8" value="&lt;font color=&quot;#000000&quot;&gt;网关(集群)&lt;/font&gt;" style="swimlane;whiteSpace=wrap;html=1;rounded=0;labelBackgroundColor=#91C3C2;strokeColor=#91C3C2;strokeWidth=1;fontSize=20;fontColor=#FFFFFF;fillColor=#91C3C2;" parent="1" vertex="1">
          <mxGeometry x="862.5" y="220" width="160" height="130" as="geometry" />
        </mxCell>
        <mxCell id="_vEEIP5en38CyTzr71SO-9" value="&lt;p style=&quot;line-height: 170%;&quot;&gt;&lt;span style=&quot;font-size: 20px;&quot;&gt;Gateway&lt;/span&gt;&lt;/p&gt;" style="rounded=0;whiteSpace=wrap;html=1;labelBackgroundColor=#FFFFFF;dashed=1;strokeWidth=1;perimeterSpacing=0;" parent="_vEEIP5en38CyTzr71SO-8" vertex="1">
          <mxGeometry x="25" y="45" width="110" height="60" as="geometry" />
        </mxCell>
        <mxCell id="_vEEIP5en38CyTzr71SO-10" value="业务能力中心" style="swimlane;whiteSpace=wrap;html=1;rounded=0;labelBackgroundColor=#91C3C2;strokeColor=#91C3C2;strokeWidth=1;fontSize=20;fontColor=#000000;fillColor=#91C3C2;startSize=23;" parent="1" vertex="1">
          <mxGeometry x="1195" y="50" width="610" height="190" as="geometry" />
        </mxCell>
        <mxCell id="_vEEIP5en38CyTzr71SO-32" value="&lt;p style=&quot;line-height: 170%;&quot;&gt;&lt;span style=&quot;font-size: 20px;&quot;&gt;用户中心&lt;/span&gt;&lt;/p&gt;" style="rounded=0;whiteSpace=wrap;html=1;labelBackgroundColor=#FFFFFF;dashed=1;strokeWidth=1;perimeterSpacing=0;" parent="_vEEIP5en38CyTzr71SO-10" vertex="1">
          <mxGeometry x="35" y="39" width="120" height="55" as="geometry" />
        </mxCell>
        <mxCell id="_vEEIP5en38CyTzr71SO-33" value="&lt;p style=&quot;line-height: 170%;&quot;&gt;&lt;span style=&quot;font-size: 20px;&quot;&gt;认证中心&lt;/span&gt;&lt;/p&gt;" style="rounded=0;whiteSpace=wrap;html=1;labelBackgroundColor=#FFFFFF;dashed=1;strokeWidth=1;perimeterSpacing=0;" parent="_vEEIP5en38CyTzr71SO-10" vertex="1">
          <mxGeometry x="175" y="41.5" width="120" height="55" as="geometry" />
        </mxCell>
        <mxCell id="_vEEIP5en38CyTzr71SO-34" value="&lt;p style=&quot;line-height: 170%;&quot;&gt;&lt;span style=&quot;font-size: 20px;&quot;&gt;事件中心&lt;/span&gt;&lt;/p&gt;" style="rounded=0;whiteSpace=wrap;html=1;labelBackgroundColor=#FFFFFF;dashed=1;strokeWidth=1;perimeterSpacing=0;" parent="_vEEIP5en38CyTzr71SO-10" vertex="1">
          <mxGeometry x="35" y="114" width="120" height="55" as="geometry" />
        </mxCell>
        <mxCell id="_vEEIP5en38CyTzr71SO-35" value="&lt;p style=&quot;line-height: 170%;&quot;&gt;&lt;span style=&quot;font-size: 20px;&quot;&gt;消息中心&lt;/span&gt;&lt;/p&gt;" style="rounded=0;whiteSpace=wrap;html=1;labelBackgroundColor=#FFFFFF;dashed=1;strokeWidth=1;perimeterSpacing=0;" parent="_vEEIP5en38CyTzr71SO-10" vertex="1">
          <mxGeometry x="175" y="114" width="120" height="55" as="geometry" />
        </mxCell>
        <mxCell id="_vEEIP5en38CyTzr71SO-48" value="&lt;p style=&quot;line-height: 170%;&quot;&gt;&lt;span style=&quot;font-size: 20px;&quot;&gt;设备中心&lt;/span&gt;&lt;/p&gt;" style="rounded=0;whiteSpace=wrap;html=1;labelBackgroundColor=#FFFFFF;dashed=1;strokeWidth=1;perimeterSpacing=0;" parent="_vEEIP5en38CyTzr71SO-10" vertex="1">
          <mxGeometry x="315" y="41.5" width="120" height="55" as="geometry" />
        </mxCell>
        <mxCell id="_vEEIP5en38CyTzr71SO-49" value="&lt;p style=&quot;line-height: 170%;&quot;&gt;&lt;span style=&quot;font-size: 20px;&quot;&gt;基础数据&lt;/span&gt;&lt;/p&gt;" style="rounded=0;whiteSpace=wrap;html=1;labelBackgroundColor=#FFFFFF;dashed=1;strokeWidth=1;perimeterSpacing=0;" parent="_vEEIP5en38CyTzr71SO-10" vertex="1">
          <mxGeometry x="315" y="114" width="120" height="55" as="geometry" />
        </mxCell>
        <mxCell id="_vEEIP5en38CyTzr71SO-138" value="数据存储" style="edgeStyle=none;rounded=0;orthogonalLoop=1;jettySize=auto;html=1;strokeColor=default;strokeWidth=2;fontSize=18;fontColor=#000000;startArrow=classic;startFill=1;startSize=2;endSize=2;exitX=0.1;exitY=0;exitDx=0;exitDy=0;exitPerimeter=0;entryX=0.115;entryY=1.002;entryDx=0;entryDy=0;entryPerimeter=0;" parent="1" source="_vEEIP5en38CyTzr71SO-11" edge="1" target="_vEEIP5en38CyTzr71SO-50">
          <mxGeometry relative="1" as="geometry">
            <mxPoint x="1230" y="610" as="targetPoint" />
            <mxPoint x="1310" y="630" as="sourcePoint" />
          </mxGeometry>
        </mxCell>
        <mxCell id="_vEEIP5en38CyTzr71SO-11" value="数据存储" style="swimlane;whiteSpace=wrap;html=1;rounded=0;labelBackgroundColor=#91C3C2;strokeColor=#91C3C2;strokeWidth=1;fontSize=20;fontColor=#000000;fillColor=#91C3C2;" parent="1" vertex="1">
          <mxGeometry x="1170" y="650" width="590" height="120" as="geometry" />
        </mxCell>
        <mxCell id="_vEEIP5en38CyTzr71SO-17" value="&lt;p style=&quot;line-height: 170%;&quot;&gt;&lt;span style=&quot;font-size: 20px;&quot;&gt;OSS文件存储&lt;/span&gt;&lt;/p&gt;" style="rounded=0;whiteSpace=wrap;html=1;labelBackgroundColor=#FFFFFF;dashed=1;strokeWidth=1;perimeterSpacing=0;spacing=2;" parent="_vEEIP5en38CyTzr71SO-11" vertex="1">
          <mxGeometry x="20" y="40" width="130" height="60" as="geometry" />
        </mxCell>
        <mxCell id="_vEEIP5en38CyTzr71SO-18" value="&lt;p style=&quot;line-height: 170%;&quot;&gt;&lt;span style=&quot;font-size: 20px;&quot;&gt;RDS数据存储&lt;/span&gt;&lt;/p&gt;" style="rounded=0;whiteSpace=wrap;html=1;labelBackgroundColor=#FFFFFF;dashed=1;strokeWidth=1;perimeterSpacing=0;spacing=2;" parent="_vEEIP5en38CyTzr71SO-11" vertex="1">
          <mxGeometry x="170" y="40" width="130" height="60" as="geometry" />
        </mxCell>
        <mxCell id="_vEEIP5en38CyTzr71SO-19" value="&lt;p style=&quot;line-height: 170%;&quot;&gt;&lt;span style=&quot;font-size: 20px;&quot;&gt;Redis集群&lt;/span&gt;&lt;/p&gt;" style="rounded=0;whiteSpace=wrap;html=1;labelBackgroundColor=#FFFFFF;dashed=1;strokeWidth=1;perimeterSpacing=0;spacing=2;" parent="_vEEIP5en38CyTzr71SO-11" vertex="1">
          <mxGeometry x="320" y="40" width="130" height="60" as="geometry" />
        </mxCell>
        <mxCell id="_vEEIP5en38CyTzr71SO-20" value="&lt;p style=&quot;line-height: 170%;&quot;&gt;&lt;span style=&quot;font-size: 20px;&quot;&gt;ES集群&lt;/span&gt;&lt;/p&gt;" style="rounded=0;whiteSpace=wrap;html=1;labelBackgroundColor=#FFFFFF;dashed=1;strokeWidth=1;perimeterSpacing=0;spacing=2;" parent="_vEEIP5en38CyTzr71SO-11" vertex="1">
          <mxGeometry x="470" y="40" width="100" height="60" as="geometry" />
        </mxCell>
        <mxCell id="_vEEIP5en38CyTzr71SO-139" value="消息/事务" style="edgeStyle=none;rounded=0;orthogonalLoop=1;jettySize=auto;html=1;exitX=0;exitY=0;exitDx=0;exitDy=0;strokeColor=default;strokeWidth=2;fontSize=16;fontColor=#000000;startArrow=classic;startFill=1;startSize=2;endSize=2;" parent="1" source="_vEEIP5en38CyTzr71SO-12" target="_vEEIP5en38CyTzr71SO-50" edge="1">
          <mxGeometry relative="1" as="geometry">
            <mxPoint x="1615" y="160" as="targetPoint" />
          </mxGeometry>
        </mxCell>
        <mxCell id="_vEEIP5en38CyTzr71SO-12" value="消息队列" style="swimlane;whiteSpace=wrap;html=1;rounded=0;labelBackgroundColor=#91C3C2;strokeColor=#91C3C2;strokeWidth=1;fontSize=20;fontColor=#000000;fillColor=#91C3C2;" parent="1" vertex="1">
          <mxGeometry x="1800" y="650" width="150" height="120" as="geometry" />
        </mxCell>
        <mxCell id="_vEEIP5en38CyTzr71SO-16" value="&lt;p style=&quot;line-height: 170%;&quot;&gt;&lt;span style=&quot;font-size: 20px;&quot;&gt;RocketMQ&lt;/span&gt;&lt;/p&gt;" style="rounded=0;whiteSpace=wrap;html=1;labelBackgroundColor=#FFFFFF;dashed=1;strokeWidth=1;perimeterSpacing=0;spacing=2;" parent="_vEEIP5en38CyTzr71SO-12" vertex="1">
          <mxGeometry x="20" y="40" width="110" height="60" as="geometry" />
        </mxCell>
        <mxCell id="_vEEIP5en38CyTzr71SO-140" value="任务调度" style="edgeStyle=none;rounded=0;orthogonalLoop=1;jettySize=auto;html=1;exitX=0;exitY=0;exitDx=0;exitDy=0;strokeColor=default;strokeWidth=2;fontSize=16;fontColor=#000000;startArrow=classic;startFill=1;startSize=2;endSize=2;entryX=1;entryY=1;entryDx=0;entryDy=0;" parent="1" source="_vEEIP5en38CyTzr71SO-21" target="_vEEIP5en38CyTzr71SO-50" edge="1">
          <mxGeometry relative="1" as="geometry">
            <mxPoint x="1830" y="620" as="targetPoint" />
            <Array as="points">
              <mxPoint x="1900" y="620" />
            </Array>
          </mxGeometry>
        </mxCell>
        <mxCell id="_vEEIP5en38CyTzr71SO-21" value="任务调度" style="swimlane;whiteSpace=wrap;html=1;rounded=0;labelBackgroundColor=#91C3C2;strokeColor=#91C3C2;strokeWidth=1;fontSize=20;fontColor=#000000;fillColor=#91C3C2;" parent="1" vertex="1">
          <mxGeometry x="1990" y="650" width="150" height="120" as="geometry" />
        </mxCell>
        <mxCell id="_vEEIP5en38CyTzr71SO-22" value="&lt;p style=&quot;line-height: 170%;&quot;&gt;&lt;span style=&quot;font-size: 20px;&quot;&gt;XXL-JOB&lt;/span&gt;&lt;/p&gt;" style="rounded=0;whiteSpace=wrap;html=1;labelBackgroundColor=#FFFFFF;dashed=1;strokeWidth=1;perimeterSpacing=0;spacing=2;" parent="_vEEIP5en38CyTzr71SO-21" vertex="1">
          <mxGeometry x="20" y="40" width="110" height="60" as="geometry" />
        </mxCell>
        <mxCell id="_vEEIP5en38CyTzr71SO-54" value="服务注册/发现" style="edgeStyle=orthogonalEdgeStyle;curved=1;rounded=0;orthogonalLoop=1;jettySize=auto;html=1;exitX=0.25;exitY=0;exitDx=0;exitDy=0;entryX=0.5;entryY=1;entryDx=0;entryDy=0;strokeColor=default;fontSize=18;fontColor=#000000;startArrow=none;startFill=0;" parent="1" source="_vEEIP5en38CyTzr71SO-23" target="_vEEIP5en38CyTzr71SO-26" edge="1">
          <mxGeometry relative="1" as="geometry" />
        </mxCell>
        <mxCell id="_vEEIP5en38CyTzr71SO-83" style="edgeStyle=none;rounded=0;orthogonalLoop=1;jettySize=auto;html=1;exitX=1;exitY=0;exitDx=0;exitDy=0;strokeColor=default;fontSize=15;fontColor=#000000;startArrow=classic;startFill=1;entryX=0;entryY=1;entryDx=0;entryDy=0;" parent="1" source="_vEEIP5en38CyTzr71SO-23" target="_vEEIP5en38CyTzr71SO-50" edge="1">
          <mxGeometry relative="1" as="geometry" />
        </mxCell>
        <mxCell id="_vEEIP5en38CyTzr71SO-84" value="事务处理" style="edgeLabel;html=1;align=center;verticalAlign=middle;resizable=0;points=[];fontSize=18;fontColor=#000000;" parent="_vEEIP5en38CyTzr71SO-83" vertex="1" connectable="0">
          <mxGeometry x="-0.0515" y="1" relative="1" as="geometry">
            <mxPoint as="offset" />
          </mxGeometry>
        </mxCell>
        <mxCell id="_vEEIP5en38CyTzr71SO-23" value="分布式事务" style="swimlane;whiteSpace=wrap;html=1;rounded=0;labelBackgroundColor=#91C3C2;strokeColor=#91C3C2;strokeWidth=1;fontSize=20;fontColor=#000000;fillColor=#91C3C2;" parent="1" vertex="1">
          <mxGeometry x="860" y="650" width="270" height="120" as="geometry" />
        </mxCell>
        <mxCell id="_vEEIP5en38CyTzr71SO-24" value="&lt;p style=&quot;line-height: 170%;&quot;&gt;&lt;span style=&quot;font-size: 20px;&quot;&gt;Seata&lt;/span&gt;&lt;/p&gt;" style="rounded=0;whiteSpace=wrap;html=1;labelBackgroundColor=#FFFFFF;dashed=1;strokeWidth=1;perimeterSpacing=0;" parent="_vEEIP5en38CyTzr71SO-23" vertex="1">
          <mxGeometry x="20" y="40" width="110" height="60" as="geometry" />
        </mxCell>
        <mxCell id="_vEEIP5en38CyTzr71SO-25" value="&lt;p style=&quot;line-height: 170%;&quot;&gt;&lt;span style=&quot;font-size: 20px;&quot;&gt;RocketMQ&lt;/span&gt;&lt;/p&gt;" style="rounded=0;whiteSpace=wrap;html=1;labelBackgroundColor=#FFFFFF;dashed=1;strokeWidth=1;perimeterSpacing=0;" parent="_vEEIP5en38CyTzr71SO-23" vertex="1">
          <mxGeometry x="140" y="40" width="110" height="60" as="geometry" />
        </mxCell>
        <mxCell id="_vEEIP5en38CyTzr71SO-55" value="服务注册/发现" style="rounded=0;orthogonalLoop=1;jettySize=auto;html=1;exitX=1;exitY=0.5;exitDx=0;exitDy=0;entryX=-0.001;entryY=0.805;entryDx=0;entryDy=0;strokeColor=default;fontSize=18;fontColor=#000000;startArrow=classic;startFill=1;entryPerimeter=0;" parent="1" source="_vEEIP5en38CyTzr71SO-26" target="_vEEIP5en38CyTzr71SO-50" edge="1">
          <mxGeometry relative="1" as="geometry" />
        </mxCell>
        <mxCell id="_vEEIP5en38CyTzr71SO-26" value="配置/注册中心" style="swimlane;whiteSpace=wrap;html=1;rounded=0;labelBackgroundColor=#91C3C2;strokeColor=#91C3C2;strokeWidth=1;fontSize=20;fontColor=#000000;fillColor=#91C3C2;" parent="1" vertex="1">
          <mxGeometry x="862.5" y="430" width="160" height="120" as="geometry" />
        </mxCell>
        <mxCell id="_vEEIP5en38CyTzr71SO-27" value="&lt;p style=&quot;line-height: 170%;&quot;&gt;&lt;span style=&quot;font-size: 20px;&quot;&gt;Nacos&lt;/span&gt;&lt;/p&gt;" style="rounded=0;whiteSpace=wrap;html=1;labelBackgroundColor=#FFFFFF;dashed=1;strokeWidth=1;perimeterSpacing=0;" parent="_vEEIP5en38CyTzr71SO-26" vertex="1">
          <mxGeometry x="20" y="40" width="110" height="60" as="geometry" />
        </mxCell>
        <mxCell id="_vEEIP5en38CyTzr71SO-30" value="认证授权" style="swimlane;whiteSpace=wrap;html=1;rounded=0;labelBackgroundColor=#91C3C2;strokeColor=#91C3C2;strokeWidth=1;fontSize=20;fontColor=#000000;fillColor=#91C3C2;startSize=23;" parent="1" vertex="1">
          <mxGeometry x="862.5" y="30" width="160" height="130" as="geometry" />
        </mxCell>
        <mxCell id="_vEEIP5en38CyTzr71SO-42" value="&lt;p style=&quot;line-height: 170%;&quot;&gt;&lt;span style=&quot;font-size: 20px;&quot;&gt;OAuth2&lt;/span&gt;&lt;/p&gt;" style="rounded=0;whiteSpace=wrap;html=1;labelBackgroundColor=#FFFFFF;dashed=1;strokeWidth=1;perimeterSpacing=0;" parent="_vEEIP5en38CyTzr71SO-30" vertex="1">
          <mxGeometry x="20" y="45" width="110" height="60" as="geometry" />
        </mxCell>
        <mxCell id="_vEEIP5en38CyTzr71SO-52" value="" style="endArrow=classic;html=1;rounded=0;fontSize=15;fontColor=#000000;exitX=0.5;exitY=0;exitDx=0;exitDy=0;entryX=0.5;entryY=1;entryDx=0;entryDy=0;strokeColor=default;startArrow=none;startFill=0;" parent="1" source="_vEEIP5en38CyTzr71SO-26" target="_vEEIP5en38CyTzr71SO-8" edge="1">
          <mxGeometry width="50" height="50" relative="1" as="geometry">
            <mxPoint x="1122.5" y="125" as="sourcePoint" />
            <mxPoint x="1172.5" y="75" as="targetPoint" />
          </mxGeometry>
        </mxCell>
        <mxCell id="_vEEIP5en38CyTzr71SO-53" value="配置获取/服务发现" style="edgeLabel;html=1;align=center;verticalAlign=middle;resizable=0;points=[];fontSize=18;fontColor=#000000;" parent="_vEEIP5en38CyTzr71SO-52" vertex="1" connectable="0">
          <mxGeometry x="-0.2273" y="-8" relative="1" as="geometry">
            <mxPoint as="offset" />
          </mxGeometry>
        </mxCell>
        <mxCell id="_vEEIP5en38CyTzr71SO-57" value="运维监控" style="swimlane;whiteSpace=wrap;html=1;rounded=0;labelBackgroundColor=#91C3C2;strokeColor=#91C3C2;strokeWidth=1;fontSize=20;fontColor=#000000;fillColor=#91C3C2;" parent="1" vertex="1">
          <mxGeometry x="840" y="840" width="1320" height="140" as="geometry" />
        </mxCell>
        <mxCell id="_vEEIP5en38CyTzr71SO-102" value="告警消息" style="edgeStyle=none;rounded=0;orthogonalLoop=1;jettySize=auto;html=1;exitX=1;exitY=0.5;exitDx=0;exitDy=0;entryX=0;entryY=0.5;entryDx=0;entryDy=0;strokeColor=default;fontSize=15;fontColor=#000000;startArrow=none;startFill=0;" parent="_vEEIP5en38CyTzr71SO-57" source="_vEEIP5en38CyTzr71SO-95" target="_vEEIP5en38CyTzr71SO-100" edge="1">
          <mxGeometry relative="1" as="geometry" />
        </mxCell>
        <mxCell id="_vEEIP5en38CyTzr71SO-95" value="" style="rounded=0;whiteSpace=wrap;html=1;dashed=1;dashPattern=1 1;labelBackgroundColor=#FFFFFF;strokeColor=#91C3C2;strokeWidth=1;fontSize=15;fontColor=#000000;fillColor=#FFFFFF;shadow=1;" parent="_vEEIP5en38CyTzr71SO-57" vertex="1">
          <mxGeometry x="50" y="38.75" width="560" height="80" as="geometry" />
        </mxCell>
        <mxCell id="_vEEIP5en38CyTzr71SO-91" value="&lt;p style=&quot;line-height: 170%;&quot;&gt;&lt;span style=&quot;font-size: 20px;&quot;&gt;Prometheus&lt;/span&gt;&lt;br&gt;&lt;/p&gt;" style="rounded=0;whiteSpace=wrap;html=1;labelBackgroundColor=#FFFFFF;dashed=1;strokeWidth=1;perimeterSpacing=0;" parent="_vEEIP5en38CyTzr71SO-57" vertex="1">
          <mxGeometry x="60" y="52.5" width="120" height="55" as="geometry" />
        </mxCell>
        <mxCell id="_vEEIP5en38CyTzr71SO-92" value="&lt;p style=&quot;line-height: 170%;&quot;&gt;&lt;span style=&quot;font-size: 20px;&quot;&gt;Zabbix&lt;/span&gt;&lt;br&gt;&lt;/p&gt;" style="rounded=0;whiteSpace=wrap;html=1;labelBackgroundColor=#FFFFFF;dashed=1;strokeWidth=1;perimeterSpacing=0;" parent="_vEEIP5en38CyTzr71SO-57" vertex="1">
          <mxGeometry x="200" y="52.5" width="120" height="55" as="geometry" />
        </mxCell>
        <mxCell id="_vEEIP5en38CyTzr71SO-93" value="&lt;p style=&quot;line-height: 170%;&quot;&gt;&lt;span style=&quot;font-size: 20px;&quot;&gt;Skywalking&lt;/span&gt;&lt;br&gt;&lt;/p&gt;" style="rounded=0;whiteSpace=wrap;html=1;labelBackgroundColor=#FFFFFF;dashed=1;strokeWidth=1;perimeterSpacing=0;" parent="_vEEIP5en38CyTzr71SO-57" vertex="1">
          <mxGeometry x="340" y="51.25" width="120" height="55" as="geometry" />
        </mxCell>
        <mxCell id="_vEEIP5en38CyTzr71SO-94" value="&lt;p style=&quot;line-height: 170%;&quot;&gt;&lt;span style=&quot;font-size: 20px;&quot;&gt;ELK&lt;/span&gt;&lt;br&gt;&lt;/p&gt;" style="rounded=0;whiteSpace=wrap;html=1;labelBackgroundColor=#FFFFFF;dashed=1;strokeWidth=1;perimeterSpacing=0;" parent="_vEEIP5en38CyTzr71SO-57" vertex="1">
          <mxGeometry x="480" y="50" width="120" height="55" as="geometry" />
        </mxCell>
        <mxCell id="_vEEIP5en38CyTzr71SO-101" value="" style="group;shadow=1;" parent="_vEEIP5en38CyTzr71SO-57" vertex="1" connectable="0">
          <mxGeometry x="830" y="38.75" width="300" height="80" as="geometry" />
        </mxCell>
        <mxCell id="_vEEIP5en38CyTzr71SO-100" value="" style="rounded=0;whiteSpace=wrap;html=1;dashed=1;dashPattern=1 1;labelBackgroundColor=#FFFFFF;strokeColor=#91C3C2;strokeWidth=1;fontSize=15;fontColor=#000000;fillColor=#FFFFFF;shadow=1;" parent="_vEEIP5en38CyTzr71SO-101" vertex="1">
          <mxGeometry width="300" height="80" as="geometry" />
        </mxCell>
        <mxCell id="_vEEIP5en38CyTzr71SO-96" value="&lt;p style=&quot;line-height: 170%;&quot;&gt;&lt;span style=&quot;font-size: 20px;&quot;&gt;钉钉&lt;/span&gt;&lt;/p&gt;" style="rounded=0;whiteSpace=wrap;html=1;labelBackgroundColor=#FFFFFF;dashed=1;strokeWidth=1;perimeterSpacing=0;" parent="_vEEIP5en38CyTzr71SO-101" vertex="1">
          <mxGeometry x="10" y="10" width="80" height="57.5" as="geometry" />
        </mxCell>
        <mxCell id="_vEEIP5en38CyTzr71SO-97" value="&lt;p style=&quot;line-height: 170%;&quot;&gt;&lt;span style=&quot;font-size: 20px;&quot;&gt;微信&lt;/span&gt;&lt;/p&gt;" style="rounded=0;whiteSpace=wrap;html=1;labelBackgroundColor=#FFFFFF;dashed=1;strokeWidth=1;perimeterSpacing=0;" parent="_vEEIP5en38CyTzr71SO-101" vertex="1">
          <mxGeometry x="110" y="10" width="80" height="57.5" as="geometry" />
        </mxCell>
        <mxCell id="_vEEIP5en38CyTzr71SO-99" value="&lt;p style=&quot;line-height: 170%;&quot;&gt;&lt;span style=&quot;font-size: 20px;&quot;&gt;SMS&lt;/span&gt;&lt;/p&gt;" style="rounded=0;whiteSpace=wrap;html=1;labelBackgroundColor=#FFFFFF;dashed=1;strokeWidth=1;perimeterSpacing=0;" parent="_vEEIP5en38CyTzr71SO-101" vertex="1">
          <mxGeometry x="200" y="7.5" width="80" height="57.5" as="geometry" />
        </mxCell>
        <mxCell id="o_QqZk30kJ9pIWFtDjuv-2" value="&lt;p style=&quot;line-height: 170%;&quot;&gt;&lt;font style=&quot;font-size: 20px;&quot;&gt;运维监控大屏&lt;/font&gt;&lt;/p&gt;" style="rounded=0;whiteSpace=wrap;html=1;labelBackgroundColor=#FFFFFF;dashed=1;strokeWidth=1;perimeterSpacing=0;" vertex="1" parent="_vEEIP5en38CyTzr71SO-57">
          <mxGeometry x="1160" y="50" width="140" height="55" as="geometry" />
        </mxCell>
        <mxCell id="_vEEIP5en38CyTzr71SO-72" value="数据能力中心" style="swimlane;whiteSpace=wrap;html=1;rounded=0;labelBackgroundColor=#91C3C2;strokeColor=#91C3C2;strokeWidth=1;fontSize=20;fontColor=#000000;fillColor=#91C3C2;" parent="1" vertex="1">
          <mxGeometry x="1200" y="400" width="610" height="180" as="geometry" />
        </mxCell>
        <mxCell id="_vEEIP5en38CyTzr71SO-36" value="&lt;p style=&quot;line-height: 170%;&quot;&gt;&lt;span style=&quot;font-size: 20px;&quot;&gt;数据汇聚&lt;/span&gt;&lt;/p&gt;" style="rounded=0;whiteSpace=wrap;html=1;labelBackgroundColor=#FFFFFF;dashed=1;strokeWidth=1;perimeterSpacing=0;" parent="_vEEIP5en38CyTzr71SO-72" vertex="1">
          <mxGeometry x="35" y="40" width="120" height="55" as="geometry" />
        </mxCell>
        <mxCell id="_vEEIP5en38CyTzr71SO-37" value="&lt;p style=&quot;line-height: 170%;&quot;&gt;&lt;span style=&quot;font-size: 20px;&quot;&gt;数据抽取&lt;/span&gt;&lt;/p&gt;" style="rounded=0;whiteSpace=wrap;html=1;labelBackgroundColor=#FFFFFF;dashed=1;strokeWidth=1;perimeterSpacing=0;" parent="_vEEIP5en38CyTzr71SO-72" vertex="1">
          <mxGeometry x="175" y="40" width="120" height="55" as="geometry" />
        </mxCell>
        <mxCell id="_vEEIP5en38CyTzr71SO-40" value="&lt;p style=&quot;line-height: 170%;&quot;&gt;&lt;span style=&quot;font-size: 20px;&quot;&gt;数据贯通&lt;/span&gt;&lt;/p&gt;" style="rounded=0;whiteSpace=wrap;html=1;labelBackgroundColor=#FFFFFF;dashed=1;strokeWidth=1;perimeterSpacing=0;" parent="_vEEIP5en38CyTzr71SO-72" vertex="1">
          <mxGeometry x="315" y="40" width="120" height="55" as="geometry" />
        </mxCell>
        <mxCell id="_vEEIP5en38CyTzr71SO-41" value="&lt;p style=&quot;line-height: 170%;&quot;&gt;&lt;span style=&quot;font-size: 20px;&quot;&gt;规则引擎&lt;/span&gt;&lt;/p&gt;" style="rounded=0;whiteSpace=wrap;html=1;labelBackgroundColor=#FFFFFF;dashed=1;strokeWidth=1;perimeterSpacing=0;" parent="_vEEIP5en38CyTzr71SO-72" vertex="1">
          <mxGeometry x="175" y="112.5" width="120" height="55" as="geometry" />
        </mxCell>
        <mxCell id="_vEEIP5en38CyTzr71SO-39" value="&lt;p style=&quot;line-height: 170%;&quot;&gt;&lt;span style=&quot;font-size: 20px;&quot;&gt;数据存储&lt;/span&gt;&lt;/p&gt;" style="rounded=0;whiteSpace=wrap;html=1;labelBackgroundColor=#FFFFFF;dashed=1;strokeWidth=1;perimeterSpacing=0;" parent="_vEEIP5en38CyTzr71SO-72" vertex="1">
          <mxGeometry x="35" y="112.5" width="120" height="55" as="geometry" />
        </mxCell>
        <mxCell id="_vEEIP5en38CyTzr71SO-38" value="&lt;p style=&quot;line-height: 170%;&quot;&gt;&lt;span style=&quot;font-size: 20px;&quot;&gt;数据清洗&lt;/span&gt;&lt;/p&gt;" style="rounded=0;whiteSpace=wrap;html=1;labelBackgroundColor=#FFFFFF;dashed=1;strokeWidth=1;perimeterSpacing=0;" parent="_vEEIP5en38CyTzr71SO-72" vertex="1">
          <mxGeometry x="465" y="40" width="120" height="55" as="geometry" />
        </mxCell>
        <mxCell id="_vEEIP5en38CyTzr71SO-113" value="应用中心" style="swimlane;whiteSpace=wrap;html=1;rounded=0;labelBackgroundColor=#91C3C2;strokeColor=#91C3C2;strokeWidth=1;fontSize=20;fontColor=#000000;fillColor=#91C3C2;" parent="1" vertex="1">
          <mxGeometry x="1200" y="270" width="610" height="110" as="geometry" />
        </mxCell>
        <mxCell id="_vEEIP5en38CyTzr71SO-45" value="&lt;p style=&quot;line-height: 170%;&quot;&gt;&lt;span style=&quot;font-size: 20px;&quot;&gt;应用管理&lt;/span&gt;&lt;/p&gt;" style="rounded=0;whiteSpace=wrap;html=1;labelBackgroundColor=#FFFFFF;dashed=1;strokeWidth=1;perimeterSpacing=0;" parent="1" vertex="1">
          <mxGeometry x="1235" y="310" width="120" height="55" as="geometry" />
        </mxCell>
        <mxCell id="_vEEIP5en38CyTzr71SO-46" value="&lt;p style=&quot;line-height: 170%;&quot;&gt;&lt;span style=&quot;font-size: 20px;&quot;&gt;应用集成&lt;/span&gt;&lt;/p&gt;" style="rounded=0;whiteSpace=wrap;html=1;labelBackgroundColor=#FFFFFF;dashed=1;strokeWidth=1;perimeterSpacing=0;" parent="1" vertex="1">
          <mxGeometry x="1375" y="310" width="120" height="55" as="geometry" />
        </mxCell>
        <mxCell id="_vEEIP5en38CyTzr71SO-47" value="&lt;p style=&quot;line-height: 170%;&quot;&gt;&lt;span style=&quot;font-size: 20px;&quot;&gt;应用分发&lt;/span&gt;&lt;/p&gt;" style="rounded=0;whiteSpace=wrap;html=1;labelBackgroundColor=#FFFFFF;dashed=1;strokeWidth=1;perimeterSpacing=0;" parent="1" vertex="1">
          <mxGeometry x="1515" y="310" width="120" height="55" as="geometry" />
        </mxCell>
        <mxCell id="_vEEIP5en38CyTzr71SO-118" value="&lt;p style=&quot;line-height: 170%;&quot;&gt;&lt;span style=&quot;font-size: 20px;&quot;&gt;应用门户&lt;/span&gt;&lt;/p&gt;" style="rounded=0;whiteSpace=wrap;html=1;labelBackgroundColor=#FFFFFF;dashed=1;strokeWidth=1;perimeterSpacing=0;" parent="1" vertex="1">
          <mxGeometry x="1665" y="310" width="120" height="55" as="geometry" />
        </mxCell>
        <mxCell id="_vEEIP5en38CyTzr71SO-132" value="&lt;font style=&quot;font-size: 16px;&quot;&gt;WEB&lt;/font&gt;" style="swimlane;whiteSpace=wrap;html=1;labelBackgroundColor=#91C3C2;fillColor=#91C3C2;strokeColor=#91C3C2;" parent="1" vertex="1">
          <mxGeometry x="85" y="840" width="640" height="130" as="geometry" />
        </mxCell>
        <mxCell id="_vEEIP5en38CyTzr71SO-133" value="&lt;p style=&quot;line-height: 170%;&quot;&gt;&lt;font style=&quot;font-size: 20px;&quot;&gt;金茂管理后台&lt;/font&gt;&lt;/p&gt;" style="rounded=0;whiteSpace=wrap;html=1;labelBackgroundColor=#FFFFFF;dashed=1;strokeWidth=1;perimeterSpacing=0;" parent="_vEEIP5en38CyTzr71SO-132" vertex="1">
          <mxGeometry x="45" y="50" width="125" height="55" as="geometry" />
        </mxCell>
        <mxCell id="o_QqZk30kJ9pIWFtDjuv-3" value="页面集成" style="edgeStyle=orthogonalEdgeStyle;rounded=0;orthogonalLoop=1;jettySize=auto;html=1;exitX=0;exitY=0.5;exitDx=0;exitDy=0;entryX=1;entryY=0.5;entryDx=0;entryDy=0;fontSize=15;startArrow=none;startFill=0;endArrow=classicThin;endFill=1;" edge="1" parent="_vEEIP5en38CyTzr71SO-132" source="4X3IUX-g1kSVnd_rLmz1-26" target="_vEEIP5en38CyTzr71SO-133">
          <mxGeometry relative="1" as="geometry" />
        </mxCell>
        <mxCell id="4X3IUX-g1kSVnd_rLmz1-26" value="&lt;p style=&quot;line-height: 170%;&quot;&gt;&lt;span style=&quot;font-size: 20px;&quot;&gt;社区管理后台&lt;/span&gt;&lt;/p&gt;" style="rounded=0;whiteSpace=wrap;html=1;labelBackgroundColor=#FFFFFF;dashed=1;strokeWidth=1;perimeterSpacing=0;" parent="_vEEIP5en38CyTzr71SO-132" vertex="1">
          <mxGeometry x="440" y="50" width="135" height="55" as="geometry" />
        </mxCell>
        <mxCell id="4X3IUX-g1kSVnd_rLmz1-2" value="&lt;p style=&quot;line-height: 170%;&quot;&gt;&lt;span style=&quot;font-size: 20px;&quot;&gt;数据脱敏&lt;/span&gt;&lt;/p&gt;" style="rounded=0;whiteSpace=wrap;html=1;labelBackgroundColor=#FFFFFF;dashed=1;strokeWidth=1;perimeterSpacing=0;" parent="1" vertex="1">
          <mxGeometry x="1516" y="510" width="120" height="55" as="geometry" />
        </mxCell>
        <mxCell id="4X3IUX-g1kSVnd_rLmz1-3" value="&lt;p style=&quot;line-height: 170%;&quot;&gt;&lt;span style=&quot;font-size: 20px;&quot;&gt;积分中心&lt;/span&gt;&lt;/p&gt;" style="rounded=0;whiteSpace=wrap;html=1;labelBackgroundColor=#FFFFFF;dashed=1;strokeWidth=1;perimeterSpacing=0;" parent="1" vertex="1">
          <mxGeometry x="1665" y="91" width="120" height="55" as="geometry" />
        </mxCell>
        <mxCell id="4X3IUX-g1kSVnd_rLmz1-4" value="&lt;p style=&quot;line-height: 170%;&quot;&gt;&lt;span style=&quot;font-size: 20px;&quot;&gt;....&lt;/span&gt;&lt;/p&gt;" style="rounded=0;whiteSpace=wrap;html=1;labelBackgroundColor=#FFFFFF;dashed=1;strokeWidth=1;perimeterSpacing=0;" parent="1" vertex="1">
          <mxGeometry x="1666" y="166" width="120" height="55" as="geometry" />
        </mxCell>
        <mxCell id="4X3IUX-g1kSVnd_rLmz1-19" value="数据共享/抽取" style="edgeStyle=orthogonalEdgeStyle;rounded=0;orthogonalLoop=1;jettySize=auto;html=1;exitX=0;exitY=0.5;exitDx=0;exitDy=0;entryX=1;entryY=0.5;entryDx=0;entryDy=0;endArrow=classicThin;endFill=1;startArrow=classicThin;startFill=1;fontSize=15;" parent="1" source="4X3IUX-g1kSVnd_rLmz1-5" target="_vEEIP5en38CyTzr71SO-72" edge="1">
          <mxGeometry relative="1" as="geometry" />
        </mxCell>
        <mxCell id="4X3IUX-g1kSVnd_rLmz1-5" value="金茂云服务" style="swimlane;whiteSpace=wrap;html=1;rounded=0;labelBackgroundColor=#91C3C2;strokeColor=#91C3C2;strokeWidth=1;fontSize=20;fontColor=#000000;fillColor=#91C3C2;" parent="1" vertex="1">
          <mxGeometry x="1920" y="395" width="220" height="190" as="geometry" />
        </mxCell>
        <mxCell id="4X3IUX-g1kSVnd_rLmz1-6" value="&lt;p style=&quot;line-height: 170%;&quot;&gt;&lt;span style=&quot;font-size: 20px;&quot;&gt;数据中台&lt;/span&gt;&lt;/p&gt;" style="rounded=0;whiteSpace=wrap;html=1;labelBackgroundColor=#FFFFFF;dashed=1;strokeWidth=1;perimeterSpacing=0;" parent="4X3IUX-g1kSVnd_rLmz1-5" vertex="1">
          <mxGeometry x="50" y="40" width="120" height="55" as="geometry" />
        </mxCell>
        <mxCell id="4X3IUX-g1kSVnd_rLmz1-10" value="&lt;p style=&quot;line-height: 170%;&quot;&gt;&lt;span style=&quot;font-size: 20px;&quot;&gt;AIOT&lt;/span&gt;&lt;/p&gt;" style="rounded=0;whiteSpace=wrap;html=1;labelBackgroundColor=#FFFFFF;dashed=1;strokeWidth=1;perimeterSpacing=0;" parent="4X3IUX-g1kSVnd_rLmz1-5" vertex="1">
          <mxGeometry x="50" y="112.5" width="120" height="55" as="geometry" />
        </mxCell>
        <mxCell id="4X3IUX-g1kSVnd_rLmz1-22" value="应用集成/上架" style="edgeStyle=orthogonalEdgeStyle;rounded=0;orthogonalLoop=1;jettySize=auto;html=1;entryX=1;entryY=0.5;entryDx=0;entryDy=0;startArrow=classicThin;startFill=1;endArrow=classicThin;endFill=1;fontSize=15;" parent="1" source="4X3IUX-g1kSVnd_rLmz1-12" target="_vEEIP5en38CyTzr71SO-113" edge="1">
          <mxGeometry relative="1" as="geometry" />
        </mxCell>
        <mxCell id="4X3IUX-g1kSVnd_rLmz1-12" value="浙里未来在线" style="swimlane;whiteSpace=wrap;html=1;rounded=0;labelBackgroundColor=#91C3C2;strokeColor=#91C3C2;strokeWidth=1;fontSize=20;fontColor=#000000;fillColor=#91C3C2;" parent="1" vertex="1">
          <mxGeometry x="1920" y="30" width="220" height="350" as="geometry" />
        </mxCell>
        <mxCell id="4X3IUX-g1kSVnd_rLmz1-13" value="&lt;p style=&quot;line-height: 170%;&quot;&gt;&lt;span style=&quot;font-size: 20px;&quot;&gt;一老一小&lt;/span&gt;&lt;/p&gt;" style="rounded=0;whiteSpace=wrap;html=1;labelBackgroundColor=#FFFFFF;dashed=1;strokeWidth=1;perimeterSpacing=0;" parent="4X3IUX-g1kSVnd_rLmz1-12" vertex="1">
          <mxGeometry x="50" y="40" width="120" height="55" as="geometry" />
        </mxCell>
        <mxCell id="4X3IUX-g1kSVnd_rLmz1-14" value="&lt;p style=&quot;line-height: 170%;&quot;&gt;&lt;span style=&quot;font-size: 20px;&quot;&gt;健康导航&lt;/span&gt;&lt;/p&gt;" style="rounded=0;whiteSpace=wrap;html=1;labelBackgroundColor=#FFFFFF;dashed=1;strokeWidth=1;perimeterSpacing=0;" parent="4X3IUX-g1kSVnd_rLmz1-12" vertex="1">
          <mxGeometry x="50" y="112.5" width="120" height="55" as="geometry" />
        </mxCell>
        <mxCell id="4X3IUX-g1kSVnd_rLmz1-20" value="&lt;p style=&quot;line-height: 170%;&quot;&gt;&lt;span style=&quot;font-size: 20px;&quot;&gt;浙住通&lt;/span&gt;&lt;/p&gt;" style="rounded=0;whiteSpace=wrap;html=1;labelBackgroundColor=#FFFFFF;dashed=1;strokeWidth=1;perimeterSpacing=0;" parent="4X3IUX-g1kSVnd_rLmz1-12" vertex="1">
          <mxGeometry x="50" y="190" width="120" height="55" as="geometry" />
        </mxCell>
        <mxCell id="4X3IUX-g1kSVnd_rLmz1-21" value="&lt;p style=&quot;line-height: 170%;&quot;&gt;&lt;span style=&quot;font-size: 20px;&quot;&gt;...&lt;/span&gt;&lt;/p&gt;" style="rounded=0;whiteSpace=wrap;html=1;labelBackgroundColor=#FFFFFF;dashed=1;strokeWidth=1;perimeterSpacing=0;" parent="4X3IUX-g1kSVnd_rLmz1-12" vertex="1">
          <mxGeometry x="50" y="270" width="120" height="55" as="geometry" />
        </mxCell>
        <mxCell id="_vEEIP5en38CyTzr71SO-2" value="&lt;font style=&quot;font-size: 16px;&quot;&gt;APP&lt;/font&gt;" style="swimlane;whiteSpace=wrap;html=1;labelBackgroundColor=#91C3C2;fillColor=#91C3C2;strokeColor=#91C3C2;startSize=23;" parent="1" vertex="1">
          <mxGeometry x="85" y="10" width="635" height="820" as="geometry" />
        </mxCell>
        <mxCell id="Gt70tcpWQOJEQj5946z7-28" value="" style="group" parent="_vEEIP5en38CyTzr71SO-2" vertex="1" connectable="0">
          <mxGeometry x="37" y="30" width="560" height="80" as="geometry" />
        </mxCell>
        <mxCell id="_vEEIP5en38CyTzr71SO-7" value="&lt;p style=&quot;line-height: 170%;&quot;&gt;&lt;span style=&quot;font-size: 20px;&quot;&gt;平台&lt;/span&gt;&lt;/p&gt;" style="rounded=1;whiteSpace=wrap;html=1;labelBackgroundColor=#FFFFFF;dashed=1;strokeWidth=1;perimeterSpacing=0;labelPosition=center;verticalLabelPosition=middle;align=left;verticalAlign=middle;shadow=1;" parent="Gt70tcpWQOJEQj5946z7-28" vertex="1">
          <mxGeometry width="560" height="80" as="geometry" />
        </mxCell>
        <mxCell id="Gt70tcpWQOJEQj5946z7-24" value="&lt;p style=&quot;line-height: 170%;&quot;&gt;&lt;font style=&quot;font-size: 20px;&quot;&gt;金茂云小程序&lt;/font&gt;&lt;br&gt;&lt;/p&gt;" style="rounded=0;whiteSpace=wrap;html=1;labelBackgroundColor=#FFFFFF;strokeWidth=1;perimeterSpacing=0;" parent="Gt70tcpWQOJEQj5946z7-28" vertex="1">
          <mxGeometry x="50" y="12" width="130" height="50" as="geometry" />
        </mxCell>
        <mxCell id="Gt70tcpWQOJEQj5946z7-25" value="&lt;p style=&quot;line-height: 170%;&quot;&gt;&lt;span style=&quot;font-size: 20px;&quot;&gt;微信小程序&lt;/span&gt;&lt;/p&gt;" style="rounded=0;whiteSpace=wrap;html=1;labelBackgroundColor=#FFFFFF;strokeWidth=1;perimeterSpacing=0;" parent="Gt70tcpWQOJEQj5946z7-28" vertex="1">
          <mxGeometry x="198" y="12" width="112" height="50" as="geometry" />
        </mxCell>
        <mxCell id="Gt70tcpWQOJEQj5946z7-26" value="&lt;p style=&quot;line-height: 170%;&quot;&gt;&lt;span style=&quot;font-size: 20px;&quot;&gt;浙里办&lt;/span&gt;&lt;/p&gt;" style="rounded=0;whiteSpace=wrap;html=1;labelBackgroundColor=#FFFFFF;strokeWidth=1;perimeterSpacing=0;" parent="Gt70tcpWQOJEQj5946z7-28" vertex="1">
          <mxGeometry x="333" y="12" width="100" height="50" as="geometry" />
        </mxCell>
        <mxCell id="Gt70tcpWQOJEQj5946z7-27" value="&lt;p style=&quot;line-height: 170%;&quot;&gt;&lt;span style=&quot;font-size: 20px;&quot;&gt;浙政钉&lt;/span&gt;&lt;/p&gt;" style="rounded=0;whiteSpace=wrap;html=1;labelBackgroundColor=#FFFFFF;strokeWidth=1;perimeterSpacing=0;" parent="Gt70tcpWQOJEQj5946z7-28" vertex="1">
          <mxGeometry x="450" y="12" width="100" height="50" as="geometry" />
        </mxCell>
        <mxCell id="Gt70tcpWQOJEQj5946z7-1" value="&lt;p style=&quot;line-height: 170%;&quot;&gt;&lt;span style=&quot;font-size: 20px;&quot;&gt;移动端Framework&lt;/span&gt;&lt;/p&gt;" style="rounded=1;whiteSpace=wrap;html=1;labelBackgroundColor=#FFFFFF;dashed=1;strokeWidth=1;perimeterSpacing=0;" parent="_vEEIP5en38CyTzr71SO-2" vertex="1">
          <mxGeometry x="82" y="760" width="450" height="50" as="geometry" />
        </mxCell>
        <mxCell id="Gt70tcpWQOJEQj5946z7-22" value="Component" style="shape=flexArrow;endArrow=classic;html=1;rounded=0;width=7.5;endSize=6.5375000000000005;fillColor=#CCE5FF;strokeColor=#CCE5FF;" parent="_vEEIP5en38CyTzr71SO-2" edge="1">
          <mxGeometry width="50" height="50" relative="1" as="geometry">
            <mxPoint x="220" y="760" as="sourcePoint" />
            <mxPoint x="222" y="700" as="targetPoint" />
          </mxGeometry>
        </mxCell>
        <mxCell id="Gt70tcpWQOJEQj5946z7-23" value="Lifecycle" style="shape=flexArrow;endArrow=classic;html=1;rounded=0;width=7.5;endSize=6.5375000000000005;fillColor=#CCE5FF;strokeColor=#CCE5FF;" parent="_vEEIP5en38CyTzr71SO-2" edge="1">
          <mxGeometry width="50" height="50" relative="1" as="geometry">
            <mxPoint x="412" y="760" as="sourcePoint" />
            <mxPoint x="412" y="700" as="targetPoint" />
          </mxGeometry>
        </mxCell>
        <mxCell id="Gt70tcpWQOJEQj5946z7-30" value="" style="group" parent="_vEEIP5en38CyTzr71SO-2" vertex="1" connectable="0">
          <mxGeometry x="42" y="150" width="550" height="550" as="geometry" />
        </mxCell>
        <mxCell id="Gt70tcpWQOJEQj5946z7-19" value="&lt;p style=&quot;line-height: 170%;&quot;&gt;&lt;font style=&quot;font-size: 20px;&quot;&gt;Taro&lt;/font&gt;&lt;/p&gt;" style="rounded=0;whiteSpace=wrap;html=1;labelBackgroundColor=#FFFFFF;dashed=1;strokeWidth=2;perimeterSpacing=0;verticalAlign=bottom;shadow=1;strokeColor=#3399FF;" parent="Gt70tcpWQOJEQj5946z7-30" vertex="1">
          <mxGeometry width="550" height="550" as="geometry" />
        </mxCell>
        <mxCell id="Gt70tcpWQOJEQj5946z7-18" value="" style="group" parent="Gt70tcpWQOJEQj5946z7-30" vertex="1" connectable="0">
          <mxGeometry x="20" y="20" width="500" height="480" as="geometry" />
        </mxCell>
        <mxCell id="Gt70tcpWQOJEQj5946z7-12" value="" style="group" parent="Gt70tcpWQOJEQj5946z7-18" vertex="1" connectable="0">
          <mxGeometry width="500" height="175" as="geometry" />
        </mxCell>
        <mxCell id="Gt70tcpWQOJEQj5946z7-11" value="&lt;p style=&quot;line-height: 170%;&quot;&gt;&lt;span style=&quot;font-size: 20px;&quot;&gt;Mini App&lt;/span&gt;&lt;/p&gt;" style="rounded=1;whiteSpace=wrap;html=1;labelBackgroundColor=#FFFFFF;dashed=1;strokeWidth=1;perimeterSpacing=0;labelPosition=center;verticalLabelPosition=middle;align=center;verticalAlign=bottom;glass=0;shadow=1;" parent="Gt70tcpWQOJEQj5946z7-12" vertex="1">
          <mxGeometry width="500" height="140" as="geometry" />
        </mxCell>
        <mxCell id="Gt70tcpWQOJEQj5946z7-8" value="&lt;p style=&quot;line-height: 170%;&quot;&gt;&lt;span style=&quot;font-size: 20px;&quot;&gt;DOM&lt;/span&gt;&lt;/p&gt;" style="rounded=0;whiteSpace=wrap;html=1;labelBackgroundColor=#FFFFFF;strokeWidth=1;perimeterSpacing=0;" parent="Gt70tcpWQOJEQj5946z7-12" vertex="1">
          <mxGeometry x="30" y="40" width="140" height="50" as="geometry" />
        </mxCell>
        <mxCell id="Gt70tcpWQOJEQj5946z7-9" value="&lt;p style=&quot;line-height: 170%;&quot;&gt;&lt;span style=&quot;font-size: 20px;&quot;&gt;BOM&lt;/span&gt;&lt;/p&gt;" style="rounded=0;whiteSpace=wrap;html=1;labelBackgroundColor=#FFFFFF;strokeWidth=1;perimeterSpacing=0;" parent="Gt70tcpWQOJEQj5946z7-12" vertex="1">
          <mxGeometry x="200" y="40" width="120" height="50" as="geometry" />
        </mxCell>
        <mxCell id="Gt70tcpWQOJEQj5946z7-10" value="&lt;p style=&quot;line-height: 170%;&quot;&gt;&lt;span style=&quot;font-size: 20px;&quot;&gt;renderer&lt;/span&gt;&lt;/p&gt;" style="rounded=0;whiteSpace=wrap;html=1;labelBackgroundColor=#FFFFFF;strokeWidth=1;perimeterSpacing=0;" parent="Gt70tcpWQOJEQj5946z7-12" vertex="1">
          <mxGeometry x="350" y="40" width="120" height="50" as="geometry" />
        </mxCell>
        <mxCell id="Gt70tcpWQOJEQj5946z7-15" value="" style="group" parent="Gt70tcpWQOJEQj5946z7-18" vertex="1" connectable="0">
          <mxGeometry y="175" width="500" height="140" as="geometry" />
        </mxCell>
        <mxCell id="Gt70tcpWQOJEQj5946z7-13" value="&lt;p style=&quot;line-height: 170%;&quot;&gt;&lt;font style=&quot;font-size: 20px;&quot;&gt;React Native&lt;/font&gt;&lt;/p&gt;" style="rounded=1;whiteSpace=wrap;html=1;labelBackgroundColor=#FFFFFF;dashed=1;strokeWidth=1;perimeterSpacing=0;verticalAlign=bottom;shadow=1;" parent="Gt70tcpWQOJEQj5946z7-15" vertex="1">
          <mxGeometry width="500" height="140" as="geometry" />
        </mxCell>
        <mxCell id="Gt70tcpWQOJEQj5946z7-6" value="&lt;p style=&quot;line-height: 170%;&quot;&gt;&lt;span style=&quot;font-size: 20px;&quot;&gt;JDReact&lt;/span&gt;&lt;/p&gt;" style="rounded=0;whiteSpace=wrap;html=1;labelBackgroundColor=#FFFFFF;strokeWidth=1;perimeterSpacing=0;" parent="Gt70tcpWQOJEQj5946z7-15" vertex="1">
          <mxGeometry x="75" y="35" width="140" height="50" as="geometry" />
        </mxCell>
        <mxCell id="Gt70tcpWQOJEQj5946z7-7" value="&lt;p style=&quot;line-height: 170%;&quot;&gt;&lt;span style=&quot;font-size: 20px;&quot;&gt;router&lt;/span&gt;&lt;/p&gt;" style="rounded=0;whiteSpace=wrap;html=1;labelBackgroundColor=#FFFFFF;strokeWidth=1;perimeterSpacing=0;" parent="Gt70tcpWQOJEQj5946z7-15" vertex="1">
          <mxGeometry x="300" y="35" width="120" height="50" as="geometry" />
        </mxCell>
        <mxCell id="Gt70tcpWQOJEQj5946z7-17" value="" style="group" parent="Gt70tcpWQOJEQj5946z7-18" vertex="1" connectable="0">
          <mxGeometry y="340" width="500" height="140" as="geometry" />
        </mxCell>
        <mxCell id="Gt70tcpWQOJEQj5946z7-16" value="&lt;p style=&quot;line-height: 170%;&quot;&gt;&lt;font style=&quot;font-size: 20px;&quot;&gt;H5&lt;/font&gt;&lt;/p&gt;" style="rounded=1;whiteSpace=wrap;html=1;labelBackgroundColor=#FFFFFF;dashed=1;strokeWidth=1;perimeterSpacing=0;verticalAlign=bottom;shadow=1;" parent="Gt70tcpWQOJEQj5946z7-17" vertex="1">
          <mxGeometry width="500" height="140" as="geometry" />
        </mxCell>
        <mxCell id="Gt70tcpWQOJEQj5946z7-4" value="&lt;p style=&quot;line-height: 170%;&quot;&gt;&lt;span style=&quot;font-size: 20px;&quot;&gt;Web Components&lt;/span&gt;&lt;/p&gt;" style="rounded=0;whiteSpace=wrap;html=1;labelBackgroundColor=#FFFFFF;strokeWidth=1;perimeterSpacing=0;" parent="Gt70tcpWQOJEQj5946z7-17" vertex="1">
          <mxGeometry x="60" y="30" width="190" height="50" as="geometry" />
        </mxCell>
        <mxCell id="Gt70tcpWQOJEQj5946z7-5" value="&lt;p style=&quot;line-height: 170%;&quot;&gt;&lt;span style=&quot;font-size: 20px;&quot;&gt;router&lt;/span&gt;&lt;/p&gt;" style="rounded=0;whiteSpace=wrap;html=1;labelBackgroundColor=#FFFFFF;strokeWidth=1;perimeterSpacing=0;" parent="Gt70tcpWQOJEQj5946z7-17" vertex="1">
          <mxGeometry x="340" y="30" width="80" height="50" as="geometry" />
        </mxCell>
        <mxCell id="Gt70tcpWQOJEQj5946z7-29" value="编译上架" style="shape=flexArrow;endArrow=classic;html=1;rounded=0;width=7.5;endSize=6.5375000000000005;fillColor=#CCE5FF;strokeColor=#CCE5FF;entryX=0.697;entryY=1.066;entryDx=0;entryDy=0;entryPerimeter=0;" parent="_vEEIP5en38CyTzr71SO-2" edge="1">
          <mxGeometry width="50" height="50" relative="1" as="geometry">
            <mxPoint x="306.5" y="159.72" as="sourcePoint" />
            <mxPoint x="306.8199999999997" y="109.99999999999974" as="targetPoint" />
          </mxGeometry>
        </mxCell>
        <mxCell id="o_QqZk30kJ9pIWFtDjuv-1" value="&lt;p style=&quot;line-height: 170%;&quot;&gt;&lt;span style=&quot;font-size: 20px;&quot;&gt;...&lt;/span&gt;&lt;/p&gt;" style="rounded=0;whiteSpace=wrap;html=1;labelBackgroundColor=#FFFFFF;dashed=1;strokeWidth=1;perimeterSpacing=0;" vertex="1" parent="1">
          <mxGeometry x="1665" y="510" width="120" height="55" as="geometry" />
        </mxCell>
      </root>
    </mxGraphModel>
  </diagram>
</mxfile>
